<svg xmlns="http://www.w3.org/2000/svg" version="1.1" xmlns:xlink="http://www.w3.org/1999/xlink" xmlns:svgjs="http://svgjs.dev/svgjs" width="1440" height="560" preserveAspectRatio="none" viewBox="0 0 1440 560"><g mask="url(&quot;#SvgjsMask1148&quot;)" fill="none"><rect width="1440" height="560" x="0" y="0" fill="url(&quot;#SvgjsLinearGradient1149&quot;)"></rect><path d="M1440 0L999.69 0L1440 10.67z" fill="rgba(255, 255, 255, .1)"></path><path d="M999.69 0L1440 10.67L1440 165.04999999999998L887.74 0z" fill="rgba(255, 255, 255, .075)"></path><path d="M887.74 0L1440 165.04999999999998L1440 374.2L437.1 0z" fill="rgba(255, 255, 255, .05)"></path><path d="M437.1 0L1440 374.2L1440 445.36L153.38 0z" fill="rgba(255, 255, 255, .025)"></path><path d="M0 560L310.34 560L0 316.15999999999997z" fill="rgba(0, 0, 0, .1)"></path><path d="M0 316.15999999999997L310.34 560L497.61 560L0 155.01999999999998z" fill="rgba(0, 0, 0, .075)"></path><path d="M0 155.01999999999998L497.61 560L596.85 560L0 116.11999999999998z" fill="rgba(0, 0, 0, .05)"></path><path d="M0 116.12L596.85 560L667.87 560L0 65.18z" fill="rgba(0, 0, 0, .025)"></path></g><defs><mask id="SvgjsMask1148"><rect width="1440" height="560" fill="#ffffff"></rect></mask><linearGradient x1="15.28%" y1="-39.29%" x2="84.72%" y2="139.29%" gradientUnits="userSpaceOnUse" id="SvgjsLinearGradient1149"><stop stop-color="#0e2a47" offset="0"></stop><stop stop-color="rgba(19, 27, 37, 1)" offset="1"></stop></linearGradient></defs></svg>